  <svg width="19" height="17" viewBox="0 0 19 17" fill="none" xmlns="http://www.w3.org/2000/svg">
    <path d="M2.23838 11.666H5.73638L6.48438 16H7.65038L4.81238 0.599999H3.14038L0.412383 16H1.51238L2.23838 11.666ZM5.56038 10.676H2.39238L3.93238 1.59H3.97638L5.56038 10.676ZM12.2183 4.142C11.3603 4.208 10.5903 4.67 10.0183 5.286V4.406H8.9623V16H10.0183V6.452C10.5683 5.792 11.2943 5.418 12.2183 5.308V4.142ZM14.4656 5.396H16.5996V4.406H14.4656V1.59H13.4316L13.4096 13.932C13.4096 15.78 14.3996 16.264 15.3896 16.264C15.9396 16.264 16.3136 16.176 16.7316 15.978V14.988C16.3136 15.23 15.9176 15.318 15.5876 15.318C14.8176 15.318 14.4656 14.944 14.4656 13.954V5.396ZM18.9302 16V14.416H17.8302V16H18.9302Z" fill="#EDF2F7"/>
  </svg>