
<svg xmlns="http://www.w3.org/2000/svg" width="30" height="30" viewBox="0 0 100 100"><path fill="#E2E8F0" d="M31.13 68.43L28.07 59.38L9.85 59.38Q9.37 60.74 8.83 62.34Q8.28 63.94 7.77 65.47Q7.26 67 6.79 68.33Q6.31 69.65 6.04 70.54L6.04 70.54Q5.09 70.94 3.79 70.94L3.79 70.94Q2.71 70.94 1.86 70.37Q1.01 69.79 1.01 68.50L1.01 68.50Q1.01 67.88 1.21 67.24Q1.41 66.59 1.69 65.84L1.69 65.84Q2.71 62.99 4.30 58.50Q5.90 54.01 7.77 48.95Q9.64 43.88 11.58 38.75Q13.52 33.61 15.15 29.53L15.15 29.53Q15.69 29.26 16.78 28.99Q17.87 28.72 19.03 28.72L19.03 28.72Q20.39 28.72 21.64 29.12Q22.90 29.53 23.24 30.48L23.24 30.48Q24.87 34.43 26.74 39.49Q28.61 44.56 30.52 49.86Q32.42 55.17 34.16 60.30Q35.89 65.44 37.25 69.58L37.25 69.58Q36.71 70.20 35.96 70.57Q35.21 70.94 34.26 70.94L34.26 70.94Q32.97 70.94 32.29 70.37Q31.61 69.79 31.13 68.43L31.13 68.43ZM19.23 33.34L18.96 33.34Q18.21 35.38 17.26 38.00Q16.31 40.62 15.29 43.47Q14.27 46.33 13.25 49.25Q12.23 52.18 11.34 54.83L11.34 54.83L26.64 54.83Q25.62 51.77 24.53 48.67Q23.45 45.58 22.46 42.72Q21.47 39.87 20.62 37.45Q19.77 35.04 19.23 33.34L19.23 33.34ZM49.76 44.83L49.76 70.26Q49.42 70.40 48.74 70.57Q48.06 70.74 47.25 70.74L47.25 70.74Q44.32 70.74 44.32 68.29L44.32 68.29L44.32 45.24Q44.32 43.68 44.90 42.76Q45.48 41.84 46.84 40.96L46.84 40.96Q48.61 39.80 51.63 38.95Q54.66 38.10 58.47 38.10L58.47 38.10Q63.91 38.10 63.91 40.82L63.91 40.82Q63.91 41.50 63.70 42.08Q63.50 42.66 63.16 43.06L63.16 43.06Q62.48 42.93 61.39 42.79Q60.30 42.66 59.21 42.66L59.21 42.66Q56.09 42.66 53.71 43.30Q51.33 43.95 49.76 44.83L49.76 44.83ZM81.04 71.28L81.04 71.28Q76.28 71.28 73.32 69.18Q70.37 67.07 70.37 62.17L70.37 62.17L70.37 29.87Q70.71 29.74 71.42 29.57Q72.13 29.40 72.95 29.40L72.95 29.40Q75.81 29.40 75.81 31.84L75.81 31.84L75.81 39.66L86.96 39.66Q87.16 40.00 87.37 40.58Q87.57 41.16 87.57 41.84L87.57 41.84Q87.57 44.15 85.53 44.15L85.53 44.15L75.81 44.15L75.81 61.83Q75.81 64.55 77.34 65.67Q78.87 66.80 81.65 66.80L81.65 66.80Q82.81 66.80 84.24 66.39Q85.67 65.98 86.62 65.44L86.62 65.44Q87.03 65.84 87.37 66.46Q87.71 67.07 87.71 67.88L87.71 67.88Q87.71 69.38 85.94 70.33Q84.17 71.28 81.04 71.28ZM91.58 67.54L91.58 67.54Q91.58 65.91 92.57 64.82Q93.55 63.74 95.32 63.74L95.32 63.74Q97.09 63.74 98.04 64.82Q98.99 65.91 98.99 67.54L98.99 67.54Q98.99 69.11 98.04 70.20Q97.09 71.28 95.32 71.28L95.32 71.28Q93.55 71.28 92.57 70.20Q91.58 69.11 91.58 67.54Z"></path></svg>