
<svg xmlns="http://www.w3.org/2000/svg" width="32" height="32" viewBox="0 0 100 100"><path fill="#E2E8F0" d="M28.45 66.80L25.66 58.56L9.05 58.56Q8.61 59.80 8.12 61.25Q7.62 62.71 7.16 64.11Q6.69 65.50 6.26 66.71Q5.82 67.92 5.58 68.72L5.58 68.72Q4.71 69.10 3.53 69.10L3.53 69.10Q2.54 69.10 1.76 68.57Q0.99 68.04 0.99 66.86L0.99 66.86Q0.99 66.31 1.17 65.72Q1.36 65.13 1.61 64.45L1.61 64.45Q2.54 61.84 4.00 57.75Q5.45 53.66 7.16 49.04Q8.86 44.42 10.63 39.74Q12.40 35.06 13.88 31.34L13.88 31.34Q14.38 31.09 15.37 30.84Q16.36 30.59 17.42 30.59L17.42 30.59Q18.66 30.59 19.81 30.97Q20.95 31.34 21.26 32.21L21.26 32.21Q22.75 35.80 24.46 40.42Q26.16 45.04 27.90 49.88Q29.63 54.71 31.21 59.39Q32.79 64.07 34.03 67.86L34.03 67.86Q33.54 68.41 32.86 68.76Q32.17 69.10 31.31 69.10L31.31 69.10Q30.13 69.10 29.51 68.57Q28.89 68.04 28.45 66.80L28.45 66.80ZM17.60 34.81L17.36 34.81Q16.67 36.67 15.81 39.06Q14.94 41.44 14.01 44.05Q13.08 46.65 12.15 49.32Q11.22 51.98 10.41 54.40L10.41 54.40L24.36 54.40Q23.43 51.61 22.44 48.79Q21.45 45.97 20.55 43.37Q19.65 40.76 18.88 38.56Q18.10 36.36 17.60 34.81L17.60 34.81ZM60.69 60.97L60.69 60.97Q60.69 64.94 57.78 67.17Q54.87 69.41 49.35 69.41L49.35 69.41Q46.99 69.41 45.01 69.00Q43.02 68.60 41.63 67.95Q40.23 67.30 39.46 66.46Q38.68 65.62 38.68 64.76L38.68 64.76Q38.68 64.01 39.09 63.33Q39.49 62.65 40.30 62.15L40.30 62.15Q41.97 63.39 44.20 64.35Q46.44 65.31 49.29 65.31L49.29 65.31Q55.73 65.31 55.73 60.97L55.73 60.97Q55.73 57.44 51.46 56.39L51.46 56.39L46.31 55.02Q42.53 54.03 40.79 52.14Q39.06 50.25 39.06 47.27L39.06 47.27Q39.06 45.66 39.71 44.17Q40.36 42.68 41.72 41.57Q43.09 40.45 45.10 39.80Q47.12 39.15 49.84 39.15L49.84 39.15Q54.19 39.15 56.85 40.42Q59.52 41.69 59.52 43.37L59.52 43.37Q59.52 44.17 59.11 44.79Q58.71 45.41 58.03 45.72L58.03 45.72Q56.91 44.98 54.87 44.11Q52.82 43.24 50.03 43.24L50.03 43.24Q47.24 43.24 45.60 44.30Q43.95 45.35 43.95 47.27L43.95 47.27Q43.95 48.70 44.88 49.69Q45.81 50.68 47.98 51.18L47.98 51.18L52.26 52.23Q56.48 53.29 58.59 55.36Q60.69 57.44 60.69 60.97ZM88.41 60.97L88.41 60.97Q88.41 64.94 85.50 67.17Q82.58 69.41 77.06 69.41L77.06 69.41Q74.71 69.41 72.72 69.00Q70.74 68.60 69.34 67.95Q67.95 67.30 67.17 66.46Q66.40 65.62 66.40 64.76L66.40 64.76Q66.40 64.01 66.80 63.33Q67.20 62.65 68.01 62.15L68.01 62.15Q69.69 63.39 71.92 64.35Q74.15 65.31 77.00 65.31L77.00 65.31Q83.45 65.31 83.45 60.97L83.45 60.97Q83.45 57.44 79.17 56.39L79.17 56.39L74.02 55.02Q70.24 54.03 68.51 52.14Q66.77 50.25 66.77 47.27L66.77 47.27Q66.77 45.66 67.42 44.17Q68.07 42.68 69.44 41.57Q70.80 40.45 72.82 39.80Q74.83 39.15 77.56 39.15L77.56 39.15Q81.90 39.15 84.56 40.42Q87.23 41.69 87.23 43.37L87.23 43.37Q87.23 44.17 86.83 44.79Q86.42 45.41 85.74 45.72L85.74 45.72Q84.63 44.98 82.58 44.11Q80.53 43.24 77.75 43.24L77.75 43.24Q74.95 43.24 73.31 44.30Q71.67 45.35 71.67 47.27L71.67 47.27Q71.67 48.70 72.60 49.69Q73.53 50.68 75.70 51.18L75.70 51.18L79.98 52.23Q84.19 53.29 86.30 55.36Q88.41 57.44 88.41 60.97ZM92.25 66.00L92.25 66.00Q92.25 64.51 93.15 63.52Q94.05 62.52 95.66 62.52L95.66 62.52Q97.27 62.52 98.14 63.52Q99.01 64.51 99.01 66.00L99.01 66.00Q99.01 67.42 98.14 68.41Q97.27 69.41 95.66 69.41L95.66 69.41Q94.05 69.41 93.15 68.41Q92.25 67.42 92.25 66.00Z"></path></svg>