  <svg width="14" height="14" viewBox="0 0 14 14" fill="none" xmlns="http://www.w3.org/2000/svg">
    <mask id="path-1-outside-1" maskUnits="userSpaceOnUse" x="3" y="0" width="11" height="11" fill="black">
      <rect fill="white" x="3" width="11" height="11"/>
      <path d="M4 9V2C4 1.44772 4.44772 1 5 1H12C12.5523 1 13 1.44772 13 2V9C13 9.55229 12.5523 10 12 10H5C4.44772 10 4 9.55229 4 9Z"/>
    </mask>
    <path d="M4 9V2C4 1.44772 4.44772 1 5 1H12C12.5523 1 13 1.44772 13 2V9C13 9.55229 12.5523 10 12 10H5C4.44772 10 4 9.55229 4 9Z" fill="white"/>
    <path className="path" d="M3 2V9H5V2H3ZM5 11H12V9H5V11ZM14 9V2H12V9H14ZM12 0H5V2H12V0ZM14 2C14 0.895431 13.1046 0 12 0V2V2H14ZM12 11C13.1046 11 14 10.1046 14 9H12V11ZM3 9C3 10.1046 3.89543 11 5 11V9H3ZM5 2H5V0C3.89543 0 3 0.895431 3 2H5Z" fill="#38B2AC" mask="url(#path-1-outside-1)"/>
    <mask id="path-3-outside-2" maskUnits="userSpaceOnUse" x="0" y="3" width="11" height="11" fill="black">
      <rect fill="white" y="3" width="11" height="11"/>
      <path d="M1 12V5C1 4.44772 1.44772 4 2 4H9C9.55229 4 10 4.44772 10 5V12C10 12.5523 9.55229 13 9 13H2C1.44772 13 1 12.5523 1 12Z"/>
    </mask>
    <path d="M1 12V5C1 4.44772 1.44772 4 2 4H9C9.55229 4 10 4.44772 10 5V12C10 12.5523 9.55229 13 9 13H2C1.44772 13 1 12.5523 1 12Z" fill="white"/>
    <path className="path" d="M0.5 5V5.875H1.5V5H0.5ZM0.5 7.625V9.375H1.5V7.625H0.5ZM0.5 11.125V12H1.5V11.125H0.5ZM0.5 12C0.5 12.2025 0.540388 12.3968 0.614018 12.5743L1.53774 12.1913C1.51358 12.133 1.5 12.0687 1.5 12H0.5ZM1.42569 13.386C1.60324 13.4596 1.79753 13.5 2 13.5V12.5C1.93128 12.5 1.867 12.4864 1.80874 12.4623L1.42569 13.386ZM2 13.5H2.875V12.5H2V13.5ZM4.625 13.5H6.375V12.5H4.625V13.5ZM8.125 13.5H9V12.5H8.125V13.5ZM9 13.5C9.20247 13.5 9.39676 13.4596 9.57432 13.386L9.19126 12.4623C9.133 12.4864 9.06872 12.5 9 12.5V13.5ZM10.386 12.5743C10.4596 12.3968 10.5 12.2025 10.5 12H9.5C9.5 12.0687 9.48642 12.133 9.46226 12.1913L10.386 12.5743ZM10.5 12V11.125H9.5V12H10.5ZM10.5 9.375V7.625H9.5V9.375H10.5ZM10.5 5.875V5H9.5V5.875H10.5ZM10.5 5C10.5 4.79753 10.4596 4.60324 10.386 4.42569L9.46226 4.80874C9.48642 4.867 9.5 4.93128 9.5 5H10.5ZM9.57432 3.61402C9.39676 3.54039 9.20247 3.5 9 3.5V4.5C9.06872 4.5 9.133 4.51358 9.19126 4.53774L9.57432 3.61402ZM9 3.5H8.125V4.5H9V3.5ZM6.375 3.5H4.625V4.5H6.375V3.5ZM2.875 3.5H2V4.5H2.875V3.5ZM2 3.5C1.79753 3.5 1.60324 3.54039 1.42569 3.61402L1.80874 4.53774C1.867 4.51358 1.93128 4.5 2 4.5V3.5ZM0.614017 4.42569C0.540388 4.60324 0.5 4.79753 0.5 5H1.5C1.5 4.93128 1.51358 4.867 1.53774 4.80874L0.614017 4.42569ZM0 5V5.875H2V5H0ZM0 7.625V9.375H2V7.625H0ZM0 11.125V12H2V11.125H0ZM0 12C0 12.2693 0.0537906 12.5286 0.152155 12.7658L1.99961 11.9997L2 12H0ZM1.23416 13.8478C1.47136 13.9462 1.73066 14 2 14V12L2.00027 12.0004L1.23416 13.8478ZM2 14H2.875V12H2V14ZM4.625 14H6.375V12H4.625V14ZM8.125 14H9V12H8.125V14ZM9 14C9.26934 14 9.52864 13.9462 9.76584 13.8478L8.99973 12.0004L9 12V14ZM10.8478 12.7658C10.9462 12.5286 11 12.2693 11 12H9L9.00039 11.9997L10.8478 12.7658ZM11 12V11.125H9V12H11ZM11 9.375V7.625H9V9.375H11ZM11 5.875V5H9V5.875H11ZM11 5C11 4.73066 10.9462 4.47136 10.8478 4.23416L9.00039 5.00027L9 5H11ZM9.76584 3.15215C9.52864 3.05379 9.26934 3 9 3V5L8.99973 4.99961L9.76584 3.15215ZM9 3H8.125V5H9V3ZM6.375 3H4.625V5H6.375V3ZM2.875 3H2V5H2.875V3ZM2 3C1.73066 3 1.47136 3.05379 1.23416 3.15215L2.00027 4.99961L2 5V3ZM0.152154 4.23416C0.0537905 4.47136 0 4.73066 0 5H2L1.99961 5.00027L0.152154 4.23416Z" fill="#38B2AC" mask="url(#path-3-outside-2)"/>
  </svg>