
<svg xmlns="http://www.w3.org/2000/svg" width="32" height="32" viewBox="0 0 100 100"><path fill="#E2E8F0" d="M19.32 58.48L19.32 58.48Q18.96 58.74 18.36 58.94Q17.76 59.15 17.03 59.15L17.03 59.15Q16.20 59.15 15.55 58.89Q14.90 58.63 14.64 58.06L14.64 58.06Q11.83 52.24 9.80 47.40Q7.78 42.56 6.53 39.39L6.53 39.39L6.32 39.39Q6.16 43.29 5.98 46.65Q5.80 50.00 5.59 53.20Q5.38 56.40 5.18 59.67Q4.97 62.95 4.76 66.69L4.76 66.69Q4.45 66.80 3.95 66.90Q3.46 67.00 2.89 67.00L2.89 67.00Q1.74 67.00 1.28 66.54Q0.81 66.07 0.81 65.18L0.81 65.18Q0.81 64.66 0.89 62.95Q0.96 61.23 1.12 58.79Q1.28 56.34 1.46 53.38Q1.64 50.42 1.87 47.35Q2.11 44.28 2.34 41.32Q2.58 38.35 2.78 35.91L2.78 35.91Q3.20 35.54 3.98 35.23Q4.76 34.92 5.75 34.92L5.75 34.92Q8.14 34.92 9.08 36.84L9.08 36.84Q10.06 38.87 11.08 41.13Q12.09 43.40 13.11 45.74Q14.12 48.08 15.08 50.36Q16.04 52.65 16.93 54.73L16.93 54.73L17.14 54.73Q18.28 51.98 19.42 49.30Q20.57 46.62 21.66 44.12Q22.75 41.63 23.74 39.44Q24.73 37.26 25.51 35.44L25.51 35.44Q25.98 35.18 26.70 35.05Q27.43 34.92 28.06 34.92L28.06 34.92Q30.50 34.92 30.86 36.58L30.86 36.58Q31.07 37.52 31.33 39.68Q31.59 41.84 31.85 44.64Q32.11 47.45 32.35 50.68Q32.58 53.90 32.79 56.89Q33.00 59.88 33.15 62.40Q33.31 64.92 33.41 66.38L33.41 66.38Q32.48 67.00 31.23 67.00L31.23 67.00Q30.45 67.00 29.85 66.61Q29.25 66.22 29.15 65.18L29.15 65.18Q28.89 61.39 28.68 57.64Q28.47 53.90 28.29 50.52Q28.11 47.14 27.95 44.31Q27.80 41.47 27.69 39.50L27.69 39.50L27.48 39.50Q26.91 40.95 26.16 42.77Q25.40 44.59 24.39 46.88Q23.38 49.17 22.13 52.05Q20.88 54.94 19.32 58.48ZM60.14 54.89L44.12 57.12Q45.53 63.94 53.07 63.94L53.07 63.94Q55.25 63.94 57.02 63.21Q58.79 62.48 59.83 61.65L59.83 61.65Q61.08 62.38 61.08 63.62L61.08 63.62Q61.08 64.35 60.43 65.03Q59.78 65.70 58.66 66.22Q57.54 66.74 56.06 67.06Q54.58 67.37 52.86 67.37L52.86 67.37Q46.83 67.37 43.32 64.09Q39.81 60.82 39.81 54.52L39.81 54.52Q39.81 51.56 40.67 49.25Q41.52 46.93 43.06 45.32Q44.59 43.71 46.72 42.85Q48.86 41.99 51.35 41.99L51.35 41.99Q53.69 41.99 55.67 42.77Q57.64 43.55 59.07 44.98Q60.50 46.41 61.31 48.36Q62.12 50.31 62.12 52.65L62.12 52.65Q62.12 53.80 61.60 54.29Q61.08 54.78 60.14 54.89L60.14 54.89ZM51.30 45.37L51.30 45.37Q48.13 45.37 46.05 47.58Q43.97 49.79 43.86 53.90L43.86 53.90L58.16 51.92Q57.90 49.06 56.16 47.22Q54.42 45.37 51.30 45.37ZM88.69 34.50L88.69 62.74Q88.69 63.78 88.25 64.35Q87.80 64.92 86.87 65.50L86.87 65.50Q85.83 66.17 83.90 66.77Q81.98 67.37 79.48 67.37L79.48 67.37Q76.68 67.37 74.34 66.64Q72.00 65.91 70.31 64.38Q68.62 62.84 67.71 60.48Q66.80 58.11 66.80 54.78L66.80 54.78Q66.80 51.40 67.73 48.99Q68.67 46.57 70.25 45.01Q71.84 43.45 74.00 42.72Q76.16 41.99 78.60 41.99L78.60 41.99Q80.26 41.99 81.82 42.41Q83.38 42.82 84.53 43.45L84.53 43.45L84.53 33.00Q84.79 32.89 85.33 32.76Q85.88 32.63 86.45 32.63L86.45 32.63Q88.69 32.63 88.69 34.50L88.69 34.50ZM84.53 62.58L84.53 47.19Q83.49 46.46 82.14 45.94Q80.78 45.42 79.02 45.42L79.02 45.42Q77.40 45.42 75.97 45.92Q74.54 46.41 73.45 47.53Q72.36 48.65 71.71 50.47Q71.06 52.29 71.06 54.89L71.06 54.89Q71.06 59.67 73.35 61.80Q75.64 63.94 79.43 63.94L79.43 63.94Q81.25 63.94 82.42 63.55Q83.59 63.16 84.53 62.58L84.53 62.58ZM93.52 64.51L93.52 64.51Q93.52 63.26 94.28 62.43Q95.03 61.60 96.38 61.60L96.38 61.60Q97.74 61.60 98.46 62.43Q99.19 63.26 99.19 64.51L99.19 64.51Q99.19 65.70 98.46 66.54Q97.74 67.37 96.38 67.37L96.38 67.37Q95.03 67.37 94.28 66.54Q93.52 65.70 93.52 64.51Z"></path></svg>