  <svg width="38" height="22" viewBox="0 0 38 22" fill="none" xmlns="http://www.w3.org/2000/svg">
    <path d="M1 16.84L7.58366 4.96H12.6265L15.5681 8.92L20.0506 1H25.2335L37 16.84L34.7588 20.8H29.5759L23.6926 12.88L19.3502 20.8H14.1673L11.2257 16.84L8.98444 20.8H3.94163L1 16.84Z" fill="white"/>
    <path d="M7.58366 4.96L1 16.84L3.94163 20.8M7.58366 4.96H12.6265L15.5681 8.92M7.58366 4.96L19.3502 20.8M15.5681 8.92L20.0506 1M15.5681 8.92L18.5097 12.88L20.751 8.92L23.6926 12.88M20.0506 1H25.2335L37 16.84M20.0506 1L31.8171 16.84M37 16.84L34.7588 20.8H29.5759M37 16.84H31.8171M29.5759 20.8L23.6926 12.88M29.5759 20.8L31.8171 16.84M23.6926 12.88L19.3502 20.8M19.3502 20.8H14.1673L11.2257 16.84M11.2257 16.84L8.98444 20.8H3.94163M11.2257 16.84L8.28405 12.88L3.94163 20.8" stroke="#285E61" strokeLinejoin="round"/>
  </svg>
  