  <svg width="14" height="15" viewBox="0 0 14 15" fill="none" xmlns="http://www.w3.org/2000/svg">
    <mask id="path-1-outside-1" maskUnits="userSpaceOnUse" x="3" y="0.897217" width="11" height="11" fill="black">
      <rect fill="white" x="3" y="0.897217" width="11" height="11"/>
      <path d="M4 9.80467V2.89722C4 2.34493 4.44772 1.89722 5 1.89722H12C12.5523 1.89722 13 2.34493 13 2.89721V9.80467C13 10.357 12.5523 10.8047 12 10.8047H5C4.44772 10.8047 4 10.357 4 9.80467Z"/>
    </mask>
    <path d="M4 9.80467V2.89722C4 2.34493 4.44772 1.89722 5 1.89722H12C12.5523 1.89722 13 2.34493 13 2.89721V9.80467C13 10.357 12.5523 10.8047 12 10.8047H5C4.44772 10.8047 4 10.357 4 9.80467Z" fill="white"/>
    <path className="path" d="M3 2.89722V9.80467H5V2.89722H3ZM5 11.8047H12V9.80467H5V11.8047ZM14 9.80467V2.89721H12V9.80467H14ZM12 0.897217H5V2.89722H12V0.897217ZM14 2.89721C14 1.79264 13.1046 0.897217 12 0.897217V2.89722V2.89721H14ZM12 11.8047C13.1046 11.8047 14 10.9092 14 9.80467H12V11.8047ZM3 9.80467C3 10.9092 3.89543 11.8047 5 11.8047V9.80467V9.80467H3ZM5 2.89722H5V0.897217C3.89543 0.897217 3 1.79265 3 2.89722H5Z" fill="#38B2AC" mask="url(#path-1-outside-1)"/>
    <mask id="path-3-outside-2" maskUnits="userSpaceOnUse" x="0" y="3.86633" width="11" height="11" fill="black">
      <rect fill="white" y="3.86633" width="11" height="11"/>
      <path d="M1 12.7738V5.86633C1 5.31405 1.44772 4.86633 2 4.86633H9C9.55229 4.86633 10 5.31405 10 5.86633V12.7738C10 13.3261 9.55229 13.7738 9 13.7738H2C1.44772 13.7738 1 13.3261 1 12.7738Z"/>
    </mask>
    <path d="M1 12.7738V5.86633C1 5.31405 1.44772 4.86633 2 4.86633H9C9.55229 4.86633 10 5.31405 10 5.86633V12.7738C10 13.3261 9.55229 13.7738 9 13.7738H2C1.44772 13.7738 1 13.3261 1 12.7738Z" fill="white"/>
    <path className="path" d="M0 5.86633V12.7738H2V5.86633H0ZM2 14.7738H9V12.7738H2V14.7738ZM11 12.7738V5.86633H9V12.7738H11ZM9 3.86633H2V5.86633H9V3.86633ZM11 5.86633C11 4.76177 10.1046 3.86633 9 3.86633V5.86633V5.86633H11ZM9 14.7738C10.1046 14.7738 11 13.8784 11 12.7738H9V14.7738ZM0 12.7738C0 13.8784 0.895428 14.7738 2 14.7738V12.7738V12.7738H0ZM2 5.86633L2 5.86633V3.86633C0.89543 3.86633 0 4.76176 0 5.86633H2Z" fill="#38B2AC" mask="url(#path-3-outside-2)"/>
    <path className="path" d="M3.85172 8.96465C3.65545 8.7704 3.33887 8.77203 3.14462 8.9683C2.95037 9.16457 2.95201 9.48115 3.14828 9.6754L3.85172 8.96465ZM5 10.8046L4.64828 11.16C4.74749 11.2582 4.88323 11.3104 5.02268 11.3041C5.16212 11.2978 5.29257 11.2334 5.38248 11.1266L5 10.8046ZM7.88248 8.15749C8.06034 7.94626 8.03328 7.63083 7.82204 7.45297C7.61081 7.27511 7.29538 7.30217 7.11752 7.51341L7.88248 8.15749ZM3.14828 9.6754L4.64828 11.16L5.35172 10.4492L3.85172 8.96465L3.14828 9.6754ZM5.38248 11.1266L7.88248 8.15749L7.11752 7.51341L4.61752 10.4826L5.38248 11.1266Z" fill="#38B2AC"/>
  </svg>

  