<svg width="28" height="28" viewBox="0 0 12 12" fill="none" xmlns="http://www.w3.org/2000/svg">
<path d="M1.125 2.125C0.848858 2.125 0.625 2.34886 0.625 2.625C0.625 2.90114 0.848858 3.125 1.125 3.125V2.125ZM10.875 3.125C11.1511 3.125 11.375 2.90114 11.375 2.625C11.375 2.34886 11.1511 2.125 10.875 2.125V3.125ZM4.125 1.125V0.625C3.84886 0.625 3.625 0.848858 3.625 1.125H4.125ZM7.875 1.125H8.375C8.375 0.848858 8.15114 0.625 7.875 0.625V1.125ZM9.375 10.875V11.375C9.65114 11.375 9.875 11.1511 9.875 10.875H9.375ZM2.625 10.875H2.125C2.125 11.1511 2.34886 11.375 2.625 11.375V10.875ZM5.375 5.25C5.375 4.97386 5.15114 4.75 4.875 4.75C4.59886 4.75 4.375 4.97386 4.375 5.25H5.375ZM4.375 8.625C4.375 8.90114 4.59886 9.125 4.875 9.125C5.15114 9.125 5.375 8.90114 5.375 8.625H4.375ZM7.625 5.25C7.625 4.97386 7.40114 4.75 7.125 4.75C6.84886 4.75 6.625 4.97386 6.625 5.25H7.625ZM6.625 8.625C6.625 8.90114 6.84886 9.125 7.125 9.125C7.40114 9.125 7.625 8.90114 7.625 8.625H6.625ZM4.625 2.625V1.125H3.625V2.625H4.625ZM4.125 1.625H7.875V0.625H4.125V1.625ZM4.125 3.125H7.875V2.125H4.125V3.125ZM7.375 1.125V2.625H8.375V1.125H7.375ZM7.875 3.125H9.375V2.125H7.875V3.125ZM9.375 3.125H10.875V2.125H9.375V3.125ZM8.875 2.625V10.875H9.875V2.625H8.875ZM9.375 10.375H2.625V11.375H9.375V10.375ZM1.125 3.125H2.625V2.125H1.125V3.125ZM2.625 3.125H4.125V2.125H2.625V3.125ZM3.125 10.875V2.625H2.125V10.875H3.125ZM4.375 5.25V8.625H5.375V5.25H4.375ZM6.625 5.25V8.625H7.625V5.25H6.625Z" fill="#CBD5E0"/>
</svg>
