
<?xml version="1.0" standalone="no"?>
<!DOCTYPE svg PUBLIC "-//W3C//DTD SVG 1.0//EN" "http://www.w3.org/TR/2001/REC-SVG-20010904/DTD/svg10.dtd">
<svg xmlns="http://www.w3.org/2000/svg" xmlns:xlink="http://www.w3.org/1999/xlink" id="body_1" width="64" height="64">

<g transform="matrix(2 0 0 2 0 0)">
	<g transform="matrix(1 0 0 1 0 0)">
	</g>
    <path transform="matrix(1 0 0 1 0 0)"  d="M24 25.923077L24 9L18 2L7.00276 2C 5.896666 2 5 2.8983383 5 4.00733L5 4.00733L5 26.99267C 5 28.101288 5.8909254 29 6.9974217 29L6.9974217 29L15.181818 29L14 31L27 31L24 25.923077zM15.772727 28L6.9999604 28C 6.454709 28 6 27.55432 6 27.004543L6 27.004543L6 3.995457C 6 3.455263 6.4457355 3 6.9955773 3L6.9955773 3L17 3L17 7.994081C 17 9.113445 17.894497 10 18.997913 10L18.997913 10L23 10L23 24.23077L20.5 20L15.772727 28zM18 3.5L18 7.991215C 18 8.548351 18.450651 9 18.996738 9L18.996738 9L22.699951 9L18 3.5zM20.5 22L25.25 30L15.75 30L20.5 22zM20 24L20 27L21 27L21 24L20 24zM20 28L20 29L21 29L21 28L20 28z" stroke="none" fill="#929292" fill-rule="nonzero" />
</g>
</svg>