<svg viewBox="0 0 12 12" fill="none" xmlns="http://www.w3.org/2000/svg">
    <path
      d="M8 0.5C7.72386 0.5 7.5 0.723858 7.5 1C7.5 1.27614 7.72386 1.5 8 1.5L8 0.5ZM10.5 4C10.5 4.27614 10.7239 4.5 11 4.5C11.2761 4.5 11.5 4.27614 11.5 4L10.5 4ZM0.500488 4C0.500488 4.27614 0.724346 4.5 1.00049 4.5C1.27663 4.5 1.50049 4.27614 1.50049 4L0.500488 4ZM4.00049 1.5C4.27663 1.5 4.50049 1.27614 4.50049 1C4.50049 0.723858 4.27663 0.5 4.00049 0.5L4.00049 1.5ZM11.5 8C11.5 7.72386 11.2761 7.5 11 7.5C10.7239 7.5 10.5 7.72386 10.5 8L11.5 8ZM8 10.5C7.72386 10.5 7.5 10.7239 7.5 11C7.5 11.2761 7.72386 11.5 8 11.5L8 10.5ZM4 11.5C4.27614 11.5 4.5 11.2761 4.5 11C4.5 10.7239 4.27614 10.5 4 10.5L4 11.5ZM1.5 8C1.5 7.72386 1.27614 7.5 1 7.5C0.723858 7.5 0.5 7.72386 0.5 8L1.5 8ZM10 0.5L8 0.5L8 1.5L10 1.5L10 0.5ZM11.5 4L11.5 2L10.5 2L10.5 4L11.5 4ZM0.500488 2L0.500488 4L1.50049 4L1.50049 2L0.500488 2ZM4.00049 0.5L2.00049 0.5L2.00049 1.5L4.00049 1.5L4.00049 0.5ZM1.50049 2C1.50049 1.72386 1.72435 1.5 2.00049 1.5L2.00049 0.5C1.17206 0.5 0.500488 1.17157 0.500488 2L1.50049 2ZM11.5 10L11.5 8L10.5 8L10.5 10L11.5 10ZM8 11.5L10 11.5L10 10.5L8 10.5L8 11.5ZM10.5 10C10.5 10.2761 10.2761 10.5 10 10.5L10 11.5C10.8284 11.5 11.5 10.8284 11.5 10L10.5 10ZM2 11.5L4 11.5L4 10.5L2 10.5L2 11.5ZM0.5 8L0.5 10L1.5 10L1.5 8L0.5 8ZM2 10.5C1.72386 10.5 1.5 10.2761 1.5 10L0.5 10C0.5 10.8284 1.17157 11.5 2 11.5L2 10.5ZM10 1.5C10.2761 1.5 10.5 1.72386 10.5 2L11.5 2C11.5 1.17157 10.8284 0.5 10 0.5L10 1.5Z"
      fill="#383838"
    />
</svg>